<svg xmlns="http://www.w3.org/2000/svg">
  <symbol id="recipes" viewBox="0 0 24 24" fill="none" stroke="currentColor" stroke-width="1.8" stroke-linecap="round" stroke-linejoin="round">
    <path d="M4 14h16a8 8 0 0 1-16 0Zm1 4h14"/>
    <path d="M8 10c-1-2 1-3 0-5m4 5c-1-2 1-3 0-5m4 5c-1-2 1-3 0-5"/>
  </symbol>
  <symbol id="settings" viewBox="0 0 24 24" fill="none" stroke="currentColor" stroke-width="1.8" stroke-linecap="round" stroke-linejoin="round">
    <circle cx="12" cy="12" r="3"/>
    <path d="M12 2v3m0 14v3M2 12h3m14 0h3M5 5l2 2m10 10 2 2M19 5l-2 2M7 17l-2 2"/>
  </symbol>
  <symbol id="star" viewBox="0 0 24 24" fill="none" stroke="currentColor" stroke-width="1.8" stroke-linecap="round" stroke-linejoin="round"><path d="m12 3 2.8 5.8 6.4.9-4.6 4.5 1.1 6.3L12 17.5l-5.7 3 1.1-6.3-4.6-4.5 6.4-.9L12 3Z"/></symbol>
</svg>
